<svg xmlns="http://www.w3.org/2000/svg" viewBox="0 24 64 38" width="100">
    <g data-name="Free delivery">
        <circle cx="13" cy="56" r="2"></circle>
        <circle cx="47" cy="56" r="2"></circle>
        <path d="M61,25H21a1,1,0,0,0-1,1v7H10a1,1,0,0,0-.91.586l-5,11,0,.012A1,1,0,0,0,4,45v8H3a1,1,0,0,0-1,1v2a3,3,0,0,0,3,3H7.812a5.986,5.986,0,0,0,10.376,0H41.812a5.986,5.986,0,0,0,10.376,0H57a3,3,0,0,0,3-3V55h1a1,1,0,0,0,1-1V26A1,1,0,0,0,61,25ZM22,27H60V49H22ZM41.812,53H22V51H43.69A6.041,6.041,0,0,0,41.812,53ZM10.644,35H16v9H6.553ZM6,46H17a1,1,0,0,0,1-1V35h2V53H18.188A5.986,5.986,0,0,0,7.812,53H6ZM5,57a1,1,0,0,1-1-1V55H7.09a5.6,5.6,0,0,0,0,2Zm8,3a4,4,0,1,1,4-4A4,4,0,0,1,13,60Zm5.91-3a5.6,5.6,0,0,0,0-2H41.09a5.6,5.6,0,0,0,0,2ZM47,60a4,4,0,1,1,4-4A4,4,0,0,1,47,60Zm11-4a1,1,0,0,1-1,1H52.91a5.6,5.6,0,0,0,0-2H58Zm2-3H52.188a6.041,6.041,0,0,0-1.878-2H60Z"></path>
        <path d="M28,43a1,1,0,0,0,1-1V39h2a1,1,0,0,0,0-2H29V35h3a1,1,0,0,0,0-2H28a1,1,0,0,0-1,1v8A1,1,0,0,0,28,43Z"></path>
        <path d="M35,43a1,1,0,0,0,1-1V39.667L38.2,42.6a1,1,0,1,0,1.6-1.2l-1.912-2.549A2.992,2.992,0,0,0,37,33H35a1,1,0,0,0-1,1v8A1,1,0,0,0,35,43Zm3-7a1,1,0,0,1-1,1H36V35h1A1,1,0,0,1,38,36Z"></path>
        <path d="M43,43h4a1,1,0,0,0,0-2H44V39h2a1,1,0,0,0,0-2H44V35h3a1,1,0,0,0,0-2H43a1,1,0,0,0-1,1v8A1,1,0,0,0,43,43Z"></path>
        <path d="M50,43h4a1,1,0,0,0,0-2H51V39h2a1,1,0,0,0,0-2H51V35h3a1,1,0,0,0,0-2H50a1,1,0,0,0-1,1v8A1,1,0,0,0,50,43Z"></path>
    </g>
</svg>